<svg version="1.2" xmlns="http://www.w3.org/2000/svg" viewBox="0 0 200 200" width="200" height="200">
	<style>
		.s0 { fill: #e1d491;stroke: #d8ca9a;stroke-miterlimit:10 } 
		.s1 { fill: #b78747 } 
		.s2 { fill: #cdb66f } 
		.s3 { opacity: .5;fill: #b08243;stroke: #b08243;stroke-miterlimit:10 } 
		.s4 { opacity: .5;fill: #b78747;stroke: #b08243;stroke-miterlimit:10 } 
		.s5 { opacity: .5;fill: #cdb66f;stroke: #baa765;stroke-miterlimit:10 } 
		.s6 { fill: #ffe76c;stroke: #e6d262;stroke-miterlimit:10 } 
		.s7 { fill: none;stroke: #e6d262;stroke-miterlimit:10 } 
		.s8 { fill: #4eb9fa } 
	</style>
	<g id="Layer 1">
	</g>
	<path id="Shape 1" fill-rule="evenodd" class="s0" d=""/>
	<path id="tailwind" class="s1" aria-label="max-h-dvw 
bg-cover
self-center
w-lg h-min
font-light
text-2xl"  d="m24.6 80.9h-0.8v-6.2h0.8v0.7h0.1q0.1-0.4 0.4-0.6 0.3-0.3 0.8-0.3 0.5 0 0.8 0.3 0.2 0.3 0.3 0.7 0.2-0.4 0.5-0.7 0.3-0.3 0.9-0.3 0.7 0 1 0.6 0.3 0.5 0.3 1.5v4.3h-0.9v-4.2q0-0.8-0.2-1.1-0.2-0.3-0.6-0.3-0.4 0-0.6 0.3-0.3 0.2-0.3 0.7v4.6h-0.8v-4.2q0-0.8-0.2-1.1-0.2-0.3-0.6-0.3-0.4 0-0.6 0.3-0.3 0.2-0.3 0.7zm12.3 0h-0.7q-0.5 0-0.8-0.3-0.2-0.2-0.3-0.7-0.2 0.6-0.7 0.9-0.4 0.3-1.2 0.3-1 0-1.5-0.5-0.6-0.5-0.6-1.4 0-0.9 0.6-1.3 0.7-0.5 2.1-0.5h1.3v-0.6q0-0.7-0.4-1-0.4-0.4-1.1-0.4-0.6 0-1 0.3-0.4 0.2-0.7 0.6l-0.6-0.5q0.1-0.2 0.3-0.4 0.2-0.3 0.5-0.4 0.3-0.2 0.7-0.3 0.4-0.1 0.9-0.1 1.1 0 1.7 0.5 0.6 0.6 0.6 1.6v3.4h0.9zm-3.5-0.7q0.4 0 0.7-0.1 0.3-0.1 0.5-0.2 0.2-0.2 0.3-0.4 0.2-0.2 0.2-0.4v-1h-1.3q-0.9 0-1.3 0.2-0.4 0.2-0.4 0.7v0.3q0 0.4 0.3 0.7 0.4 0.2 1 0.2zm5.9 0.7h-1.1l2.3-3.2-2.2-3h1.1l1 1.3 0.7 1h0.1l0.7-1 0.9-1.3h1.1l-2.2 3 2.3 3.2h-1.2l-1-1.5-0.7-0.9h-0.1l-0.7 0.9zm10.8-3.1h-3.5v-1h3.5zm3 3.1v-8.8h1v3.6q0.1-0.2 0.2-0.4 0.2-0.2 0.4-0.4 0.2-0.1 0.5-0.2 0.3-0.1 0.7-0.1 0.9 0 1.5 0.6 0.6 0.6 0.6 1.8v3.9h-1v-3.8q0-0.8-0.3-1.2-0.4-0.5-1.1-0.5-0.3 0-0.6 0.1-0.3 0.1-0.5 0.2-0.2 0.2-0.3 0.4-0.2 0.2-0.2 0.5v4.3zm11.4-3.1h-3.5v-1h3.5zm7 3.1v-1h-0.1q-0.6 1.2-1.9 1.2-1.1 0-1.8-0.9-0.6-0.8-0.6-2.4 0-1.5 0.6-2.4 0.7-0.8 1.8-0.8 1.3 0 1.9 1.1h0.1v-3.7h0.9v8.9zm-1.6-0.7q0.4 0 0.7-0.1 0.2 0 0.5-0.2 0.2-0.2 0.3-0.4 0.1-0.2 0.1-0.6v-2.2q0-0.3-0.1-0.5-0.1-0.3-0.3-0.4-0.2-0.2-0.5-0.3-0.3-0.1-0.6-0.1-0.9 0-1.4 0.6-0.4 0.5-0.4 1.3v1.1q0 0.8 0.4 1.3 0.5 0.5 1.3 0.5zm7.9 0.7h-1.2l-2.2-6.2h1l0.9 2.6 0.9 2.8h0.1l0.9-2.8 0.9-2.6h1zm4.3 0l-1-6.2h0.9l0.7 5.4h0.1l1-5.4h1.1l1.1 5.4h0.1l0.7-5.4h0.8l-1 6.2h-1.2l-1-5.1h-0.1l-1 5.1zm-62.4 21q-1 0-1.7-0.4-0.7-0.3-1.2-0.8l0.7-0.6q0.4 0.5 0.9 0.7 0.6 0.3 1.3 0.3 0.7 0 1.2-0.3 0.4-0.2 0.4-0.8 0-0.2-0.1-0.4 0-0.2-0.2-0.3-0.2-0.1-0.3-0.1-0.2-0.1-0.5-0.1l-0.9-0.1q-0.3-0.1-0.7-0.2-0.4-0.1-0.7-0.2-0.3-0.2-0.5-0.5-0.2-0.4-0.2-0.9 0-0.4 0.1-0.8 0.2-0.3 0.6-0.5 0.3-0.3 0.8-0.4 0.4-0.1 0.9-0.1 0.9 0 1.5 0.3 0.6 0.2 1.1 0.7l-0.7 0.6q-0.1-0.2-0.2-0.3-0.2-0.1-0.4-0.2-0.3-0.2-0.6-0.2-0.3-0.1-0.7-0.1-0.7 0-1.1 0.2-0.4 0.3-0.4 0.8 0 0.2 0.1 0.4 0.1 0.1 0.2 0.2 0.2 0.1 0.4 0.2 0.2 0 0.4 0.1l1 0.1q0.3 0.1 0.7 0.2 0.3 0 0.7 0.2 0.3 0.2 0.5 0.5 0.2 0.3 0.2 0.8 0 1-0.7 1.5-0.7 0.5-1.9 0.5zm7.2 0q-0.7 0-1.2-0.3-0.5-0.2-0.9-0.6-0.4-0.4-0.6-1-0.2-0.6-0.2-1.4 0-0.7 0.2-1.3 0.2-0.6 0.6-1 0.4-0.5 0.9-0.7 0.5-0.2 1.1-0.2 0.7 0 1.2 0.2 0.5 0.2 0.9 0.7 0.3 0.4 0.5 0.9 0.2 0.6 0.2 1.2v0.5h-4.6v0.3q0 0.4 0.1 0.7 0.2 0.4 0.4 0.6 0.3 0.3 0.6 0.4 0.4 0.1 0.8 0.1 0.6 0 1.1-0.2 0.4-0.3 0.7-0.8l0.7 0.4q-0.3 0.7-0.9 1.1-0.7 0.4-1.6 0.4zm-0.1-5.7q-0.3 0-0.7 0.1-0.3 0.2-0.6 0.4-0.2 0.3-0.4 0.6-0.1 0.4-0.1 0.8v0.1h3.6v-0.2q0-0.4-0.2-0.7-0.1-0.4-0.3-0.6-0.2-0.3-0.6-0.4-0.3-0.1-0.7-0.1zm4.6 5.5v-0.8h2.1v-7.2h-2.1v-0.9h3.1v8.1h2.1v0.8zm7.3 0v-0.8h2.1v-4.5h-2.2v-0.9h2.2v-1.2q0-0.7 0.3-1.1 0.3-0.3 1-0.3h2.1v0.8h-2.5v1.8h2.5v0.9h-2.5v4.5h2.2v0.8zm11.6-3.1h-3.5v-1h3.5zm5.7 3.3q-0.7 0-1.2-0.3-0.6-0.2-0.9-0.6-0.4-0.4-0.6-1-0.2-0.6-0.2-1.4 0-0.7 0.2-1.3 0.2-0.6 0.6-1 0.3-0.5 0.9-0.7 0.5-0.2 1.1-0.2 0.9 0 1.5 0.4 0.6 0.4 0.8 1l-0.7 0.4q-0.2-0.5-0.6-0.7-0.4-0.3-1-0.3-0.4 0-0.7 0.2-0.3 0.1-0.6 0.3-0.2 0.3-0.3 0.6-0.1 0.4-0.1 0.8v1.1q0 0.4 0.1 0.7 0.1 0.4 0.3 0.6 0.3 0.3 0.6 0.4 0.3 0.1 0.8 0.1 0.6 0 1-0.2 0.4-0.3 0.6-0.8l0.7 0.4q-0.2 0.7-0.8 1.1-0.6 0.4-1.5 0.4zm7 0q-0.6 0-1.2-0.3-0.5-0.2-0.9-0.6-0.4-0.4-0.6-1-0.2-0.6-0.2-1.4 0-0.7 0.2-1.3 0.3-0.6 0.6-1 0.4-0.5 0.9-0.7 0.5-0.2 1.2-0.2 0.6 0 1.1 0.2 0.5 0.2 0.9 0.7 0.3 0.4 0.5 0.9 0.2 0.6 0.2 1.2v0.5h-4.6v0.3q0 0.4 0.2 0.7 0.1 0.4 0.4 0.6 0.2 0.3 0.6 0.4 0.3 0.1 0.7 0.1 0.7 0 1.1-0.2 0.5-0.3 0.7-0.8l0.7 0.4q-0.2 0.7-0.9 1.1-0.6 0.4-1.6 0.4zm0-5.7q-0.4 0-0.7 0.1-0.4 0.2-0.6 0.4-0.3 0.3-0.4 0.6-0.2 0.4-0.2 0.8v0.1h3.6v-0.2q0-0.4-0.1-0.7-0.2-0.4-0.4-0.6-0.2-0.3-0.5-0.4-0.3-0.1-0.7-0.1zm5.7 5.5h-1v-6.2h1v1q0.1-0.2 0.3-0.4 0.1-0.2 0.3-0.4 0.2-0.1 0.5-0.2 0.3-0.1 0.7-0.1 1 0 1.5 0.6 0.6 0.6 0.6 1.8v3.9h-0.9v-3.8q0-0.8-0.4-1.2-0.4-0.5-1.1-0.5-0.3 0-0.6 0.1-0.2 0.1-0.4 0.2-0.3 0.2-0.4 0.4-0.1 0.2-0.1 0.5zm11.3 0h-2.4q-0.7 0-1-0.4-0.3-0.4-0.3-1v-3.9h-2.1v-0.9h1.5q0.4 0 0.5-0.1 0.1-0.1 0.1-0.4v-1.6h0.9v2.1h2.8v0.9h-2.8v4.5h2.8zm4.6 0.2q-0.6 0-1.2-0.3-0.5-0.2-0.9-0.6-0.4-0.4-0.6-1-0.2-0.6-0.2-1.4 0-0.7 0.2-1.3 0.3-0.6 0.6-1 0.4-0.5 0.9-0.7 0.5-0.2 1.2-0.2 0.6 0 1.1 0.2 0.5 0.2 0.9 0.6 0.3 0.4 0.5 1 0.2 0.5 0.2 1.2v0.5h-4.6v0.3q0 0.4 0.2 0.7 0.1 0.4 0.4 0.6 0.2 0.3 0.6 0.4 0.3 0.1 0.7 0.1 0.7 0 1.1-0.3 0.5-0.2 0.7-0.7l0.7 0.4q-0.2 0.7-0.9 1.1-0.6 0.4-1.6 0.4zm0-5.7q-0.4 0-0.7 0.1-0.4 0.2-0.6 0.4-0.3 0.3-0.4 0.6-0.2 0.4-0.2 0.8h3.6v-0.1q0-0.4-0.1-0.7-0.2-0.4-0.4-0.6-0.2-0.3-0.5-0.4-0.3-0.1-0.7-0.1zm4.5 5.5v-0.8h1.8v-4.6h-1.8v-0.8h2.7v1.6h0.1q0.2-0.7 0.7-1.1 0.6-0.5 1.4-0.5h0.8v1h-1.1q-0.8 0-1.4 0.5-0.5 0.5-0.5 1.2v2.7h2.4v0.8zm-68.3 20.8v-0.8h2.1v-4.6h-2.2v-0.8h2.2v-1.3q0-0.6 0.3-1 0.3-0.4 1.1-0.4h2v0.8h-2.5v1.9h2.5v0.8h-2.5v4.6h2.3v0.8zm9.8 0.2q-0.7 0-1.2-0.3-0.5-0.2-0.9-0.6-0.4-0.5-0.6-1-0.1-0.6-0.1-1.4 0-0.7 0.1-1.3 0.2-0.6 0.6-1 0.4-0.5 0.9-0.7 0.5-0.2 1.2-0.2 0.6 0 1.1 0.2 0.6 0.2 0.9 0.7 0.4 0.4 0.6 1 0.2 0.6 0.2 1.3 0 0.8-0.2 1.4-0.2 0.5-0.6 1-0.3 0.4-0.9 0.6-0.5 0.3-1.1 0.3zm0-0.9q0.8 0 1.3-0.5 0.4-0.4 0.4-1.4v-0.9q0-1-0.4-1.5-0.5-0.5-1.3-0.5-0.8 0-1.3 0.5-0.5 0.5-0.5 1.5v0.9q0 1 0.5 1.4 0.5 0.5 1.3 0.5zm5.7 0.7h-1v-6.2h1v1q0.1-0.2 0.3-0.4 0.1-0.2 0.3-0.4 0.2-0.1 0.5-0.2 0.3-0.1 0.7-0.1 1 0 1.6 0.6 0.6 0.6 0.6 1.7v4h-1v-3.8q0-0.8-0.4-1.3-0.3-0.4-1.1-0.4-0.3 0-0.5 0.1-0.3 0.1-0.5 0.2-0.2 0.2-0.4 0.4-0.1 0.2-0.1 0.5zm11.4 0h-2.4q-0.7 0-1.1-0.4-0.3-0.4-0.3-1v-4h-2.1v-0.8h1.6q0.3 0 0.4-0.1 0.1-0.1 0.1-0.4v-1.7h1v2.2h2.8v0.8h-2.8v4.6h2.8zm6.2-3.1h-3.5v-1h3.5zm2.8 3.1v-0.8h2.2v-7.3h-2.2v-0.8h3.1v8.1h2.2v0.8zm10.2-7.6q-0.4 0-0.6-0.1-0.1-0.2-0.1-0.5v-0.2q0-0.2 0.1-0.4 0.2-0.2 0.6-0.2 0.4 0 0.6 0.2 0.2 0.2 0.2 0.4v0.2q0 0.3-0.2 0.5-0.2 0.1-0.6 0.1zm-2.7 7.6v-0.8h2.2v-4.6h-2.2v-0.8h3.2v5.4h2.1v0.8zm12.7 0.7q0 0.9-0.8 1.4-0.8 0.4-2.4 0.4-1.5 0-2.1-0.3-0.7-0.4-0.7-1.2 0-0.5 0.3-0.8 0.3-0.2 0.7-0.4v-0.1q-0.2-0.2-0.4-0.4-0.1-0.2-0.1-0.5 0-0.5 0.3-0.7 0.3-0.2 0.8-0.4-0.6-0.3-0.9-0.7-0.3-0.5-0.3-1.2 0-0.5 0.2-0.9 0.1-0.4 0.4-0.6 0.4-0.3 0.8-0.5 0.4-0.1 1-0.1 0.7 0 1.2 0.2v-0.1q0-0.3 0.2-0.6 0.1-0.2 0.6-0.2h1.1v0.8h-1.4v0.4q0.3 0.3 0.5 0.7 0.2 0.4 0.2 0.9 0 0.5-0.2 0.9-0.2 0.4-0.5 0.7-0.3 0.2-0.7 0.4-0.5 0.1-1 0.1-0.2 0-0.3 0-0.2 0-0.3 0-0.1 0-0.3 0.1-0.2 0-0.3 0.1-0.1 0.1-0.2 0.2-0.1 0.1-0.1 0.3 0 0.3 0.3 0.4 0.3 0.1 0.7 0.1h1.4q1.2 0 1.7 0.4 0.6 0.5 0.6 1.2zm-0.9 0.1q0-0.4-0.3-0.6-0.3-0.3-1.1-0.3h-2.1q-0.7 0.3-0.7 0.9 0 0.4 0.4 0.7 0.3 0.3 1 0.3h1q0.8 0 1.3-0.3 0.5-0.2 0.5-0.7zm-2.3-3.6q0.7 0 1-0.3 0.4-0.4 0.4-0.9v-0.4q0-0.5-0.4-0.9-0.3-0.3-1-0.3-0.7 0-1.1 0.3-0.3 0.4-0.3 0.9v0.4q0 0.5 0.3 0.9 0.4 0.3 1.1 0.3zm4.8 2.8v-8.9h1v3.7q0.1-0.2 0.2-0.4 0.2-0.2 0.4-0.4 0.2-0.1 0.5-0.2 0.3-0.1 0.7-0.1 0.9 0 1.5 0.6 0.6 0.6 0.6 1.7v4h-0.9v-3.8q0-0.9-0.4-1.3-0.4-0.4-1.1-0.4-0.3 0-0.6 0.1-0.2 0.1-0.5 0.2-0.2 0.2-0.3 0.4-0.1 0.2-0.1 0.5v4.3zm12.3 0h-2.4q-0.7 0-1.1-0.4-0.3-0.4-0.3-1v-4h-2.1l0.1-0.8h1.5q0.3 0 0.4-0.1 0.2-0.1 0.2-0.5v-1.6h0.9v2.2h2.8v0.8h-2.8v4.6h2.8z"/>
	<path id="tailwind" class="s2" aria-label="max-h-dvw 
bg-cover
self-center
w-lg h-min
font-light
text-2xl"  d="m27.8 91.3v-8.9h1v3.7h0.1q0.6-1.2 1.9-1.2 1.1 0 1.7 0.9 0.7 0.8 0.7 2.4 0 1.5-0.7 2.4-0.6 0.8-1.7 0.8-1.4 0-2-1.1v1zm2.5-0.7q0.9 0 1.3-0.5 0.5-0.6 0.5-1.4v-1q0-0.9-0.5-1.4-0.4-0.5-1.3-0.5-0.3 0-0.6 0.1-0.3 0.1-0.5 0.2-0.2 0.2-0.3 0.4-0.1 0.3-0.1 0.6v2.2q0 0.3 0.1 0.5 0.1 0.3 0.3 0.4 0.2 0.2 0.5 0.3 0.3 0.1 0.6 0.1zm10.3 1.4q0 0.9-0.8 1.4-0.8 0.4-2.3 0.4-1.5 0-2.2-0.4-0.6-0.4-0.6-1.1 0-0.5 0.2-0.8 0.3-0.3 0.8-0.4v-0.1q-0.3-0.2-0.4-0.4-0.2-0.2-0.2-0.5 0-0.5 0.3-0.7 0.4-0.3 0.8-0.4-0.5-0.3-0.9-0.8-0.3-0.5-0.3-1.1 0-0.5 0.2-0.9 0.2-0.4 0.5-0.7 0.3-0.2 0.7-0.4 0.5-0.2 1-0.2 0.7 0 1.3 0.3v-0.1q0-0.4 0.1-0.6 0.2-0.3 0.6-0.3h1.1v0.9h-1.4v0.4q0.4 0.3 0.6 0.7 0.1 0.4 0.1 0.9 0 0.4-0.1 0.8-0.2 0.4-0.5 0.7-0.3 0.3-0.8 0.5-0.4 0.1-1 0.1-0.1 0-0.3 0-0.1 0-0.3 0-0.1 0-0.3 0-0.1 0.1-0.3 0.2-0.1 0.1-0.2 0.2-0.1 0.1-0.1 0.3 0 0.2 0.3 0.3 0.3 0.1 0.7 0.1h1.4q1.2 0 1.8 0.5 0.5 0.4 0.5 1.2zm-0.9 0q0-0.3-0.3-0.6-0.3-0.2-1.1-0.2h-2.1q-0.6 0.3-0.6 0.9 0 0.4 0.3 0.7 0.3 0.3 1.1 0.3h0.9q0.9 0 1.3-0.3 0.5-0.3 0.5-0.8zm-2.3-3.5q0.7 0 1.1-0.4 0.3-0.3 0.3-0.9v-0.3q0-0.6-0.3-0.9-0.4-0.3-1.1-0.3-0.7 0-1 0.3-0.4 0.3-0.4 0.9v0.3q0 0.6 0.4 0.9 0.3 0.4 1 0.4zm9-0.4h-3.5v-1h3.5zm5.7 3.3q-0.7 0-1.2-0.2-0.5-0.3-0.9-0.7-0.4-0.4-0.5-1-0.2-0.6-0.2-1.3 0-0.8 0.2-1.4 0.2-0.6 0.5-1 0.4-0.4 0.9-0.6 0.5-0.3 1.2-0.3 0.9 0 1.4 0.4 0.6 0.4 0.9 1.1l-0.8 0.4q-0.2-0.5-0.6-0.8-0.4-0.2-0.9-0.2-0.5 0-0.8 0.1-0.3 0.1-0.5 0.4-0.3 0.2-0.4 0.6-0.1 0.3-0.1 0.7v1.1q0 0.4 0.1 0.8 0.1 0.3 0.4 0.6 0.2 0.2 0.5 0.4 0.4 0.1 0.8 0.1 0.6 0 1-0.3 0.4-0.3 0.7-0.8l0.7 0.5q-0.3 0.6-0.9 1-0.6 0.4-1.5 0.4zm7 0q-0.7 0-1.2-0.2-0.5-0.2-0.9-0.7-0.4-0.4-0.6-1-0.1-0.6-0.1-1.3 0-0.8 0.1-1.4 0.2-0.6 0.6-1 0.4-0.4 0.9-0.6 0.5-0.3 1.2-0.3 0.6 0 1.1 0.3 0.6 0.2 0.9 0.6 0.4 0.4 0.6 1 0.2 0.6 0.2 1.4 0 0.7-0.2 1.3-0.2 0.6-0.6 1-0.3 0.5-0.9 0.7-0.5 0.2-1.1 0.2zm0-0.8q0.8 0 1.3-0.5 0.5-0.5 0.5-1.5v-0.9q0-1-0.5-1.5-0.5-0.4-1.3-0.4-0.8 0-1.3 0.4-0.5 0.5-0.5 1.5v0.9q0 1 0.5 1.5 0.5 0.5 1.3 0.5zm7.8 0.7h-1.3l-2.2-6.2h1l0.9 2.6 0.9 2.8h0.1l1-2.8 0.8-2.6h1zm6.7 0.1q-0.7 0-1.2-0.2-0.5-0.2-0.9-0.6-0.4-0.5-0.6-1.1-0.2-0.6-0.2-1.3 0-0.7 0.2-1.3 0.2-0.6 0.6-1.1 0.4-0.4 0.9-0.6 0.5-0.3 1.1-0.3 0.7 0 1.2 0.3 0.5 0.2 0.8 0.6 0.4 0.4 0.6 1 0.2 0.5 0.2 1.2v0.4h-4.6v0.3q0 0.4 0.1 0.8 0.2 0.3 0.4 0.6 0.3 0.2 0.6 0.4 0.4 0.1 0.8 0.1 0.6 0 1.1-0.3 0.4-0.3 0.7-0.8l0.7 0.5q-0.3 0.6-0.9 1-0.7 0.4-1.6 0.4zm-0.1-5.7q-0.4 0-0.7 0.2-0.3 0.1-0.6 0.4-0.2 0.2-0.4 0.6-0.1 0.3-0.1 0.7v0.1h3.5v-0.1q0-0.4-0.1-0.8-0.1-0.3-0.3-0.5-0.2-0.3-0.6-0.4-0.3-0.2-0.7-0.2zm4.5 5.6v-0.8h1.8v-4.6h-1.8v-0.8h2.8v1.6q0.2-0.8 0.8-1.2 0.5-0.4 1.3-0.4h0.9v1h-1.2q-0.8 0-1.3 0.4-0.5 0.5-0.5 1.3v2.7h2.4v0.8zm-57.2 20.8l-1-6.2h0.9l0.7 5.3h0.1l1-5.3h1.1l1 5.3h0.2l0.7-5.3h0.8l-1 6.2h-1.2l-1-5.2h-0.1l-1 5.2zm11.2-3.2h-3.4v-1h3.4zm2.9 3.2v-0.8h2.1v-7.3h-2.1v-0.8h3.1v8.1h2.1v0.8zm13 0.7q0 0.9-0.8 1.4-0.7 0.4-2.3 0.4-1.5 0-2.2-0.4-0.6-0.4-0.6-1.1 0-0.5 0.2-0.8 0.3-0.3 0.8-0.4v-0.2q-0.3-0.1-0.4-0.3-0.2-0.2-0.2-0.5 0-0.5 0.4-0.7 0.3-0.3 0.8-0.4-0.6-0.3-0.9-0.8-0.4-0.5-0.4-1.1 0-0.5 0.2-0.9 0.2-0.4 0.5-0.7 0.3-0.3 0.8-0.4 0.4-0.2 0.9-0.2 0.7 0 1.3 0.3v-0.1q0-0.4 0.1-0.6 0.2-0.3 0.6-0.3h1.2v0.9h-1.4v0.4q0.3 0.3 0.5 0.7 0.2 0.4 0.2 0.9 0 0.4-0.2 0.8-0.2 0.4-0.5 0.7-0.3 0.3-0.8 0.5-0.4 0.1-1 0.1-0.1 0-0.3 0-0.1 0-0.2 0-0.2 0-0.3 0-0.2 0.1-0.3 0.2-0.2 0.1-0.2 0.2-0.1 0.1-0.1 0.3 0 0.2 0.2 0.3 0.3 0.1 0.8 0.1h1.3q1.2 0 1.8 0.5 0.5 0.4 0.5 1.2zm-0.9 0q0-0.3-0.3-0.6-0.3-0.2-1-0.2h-2.2q-0.6 0.3-0.6 0.9 0 0.4 0.3 0.7 0.3 0.2 1.1 0.2h0.9q0.9 0 1.3-0.2 0.5-0.3 0.5-0.8zm-2.3-3.5q0.8 0 1.1-0.4 0.3-0.3 0.3-0.9v-0.3q0-0.6-0.3-0.9-0.3-0.3-1.1-0.3-0.7 0-1 0.3-0.3 0.3-0.3 0.9v0.3q0 0.6 0.3 0.9 0.3 0.4 1 0.4zm12.1 2.8v-8.9h0.9v3.7h0.1q0.1-0.2 0.2-0.4 0.1-0.3 0.4-0.4 0.2-0.2 0.5-0.3 0.2-0.1 0.6-0.1 1 0 1.6 0.7 0.6 0.6 0.6 1.7v4h-1v-3.8q0-0.9-0.4-1.3-0.3-0.4-1-0.4-0.3 0-0.6 0.1-0.3 0-0.5 0.2-0.2 0.1-0.4 0.4-0.1 0.2-0.1 0.5v4.3zm11.4-3.2h-3.5v-1h3.5zm3.4 3.2h-0.9v-6.2h0.9v0.7q0.2-0.4 0.4-0.6 0.3-0.3 0.8-0.3 0.6 0 0.8 0.3 0.3 0.3 0.3 0.7h0.1q0.1-0.4 0.5-0.7 0.3-0.3 0.8-0.3 0.8 0 1 0.6 0.3 0.5 0.3 1.5v4.3h-0.9v-4.2q0-0.8-0.2-1.1-0.1-0.3-0.6-0.3-0.3 0-0.6 0.3-0.2 0.2-0.2 0.7v4.6h-0.9v-4.2q0-0.8-0.2-1.1-0.1-0.3-0.5-0.3-0.4 0-0.7 0.3-0.2 0.2-0.2 0.7zm9.6-7.5q-0.4 0-0.6-0.2-0.1-0.2-0.1-0.4v-0.2q0-0.3 0.1-0.5 0.2-0.2 0.6-0.2 0.4 0 0.6 0.2 0.2 0.2 0.2 0.5v0.2q0 0.2-0.2 0.4-0.2 0.2-0.6 0.2zm-2.7 7.5v-0.8h2.2v-4.6h-2.2v-0.8h3.2v5.4h2.1v0.8zm8.1 0h-1v-6.2h1v1q0.1-0.2 0.2-0.4 0.2-0.2 0.4-0.4 0.2-0.1 0.5-0.2 0.3-0.1 0.7-0.1 0.9 0 1.5 0.6 0.6 0.6 0.6 1.8v3.9h-0.9v-3.8q0-0.8-0.4-1.2-0.4-0.5-1.1-0.5-0.3 0-0.6 0.1-0.2 0.1-0.5 0.2-0.2 0.2-0.3 0.4-0.1 0.2-0.1 0.5zm-53.5 20.8h-2.4q-0.7 0-1-0.4-0.4-0.4-0.4-1l0.1-4h-2.1v-0.8h1.5q0.3 0 0.5-0.1 0.1-0.1 0.1-0.4v-1.7h0.9v2.2h2.8v0.8h-2.8v4.6h2.8zm4.6 0.1q-0.6 0-1.2-0.2-0.5-0.2-0.9-0.6-0.4-0.5-0.6-1-0.2-0.6-0.2-1.4 0-0.7 0.2-1.3 0.2-0.6 0.6-1 0.4-0.5 0.9-0.7 0.5-0.2 1.2-0.2 0.6 0 1.1 0.2 0.5 0.2 0.9 0.6 0.3 0.4 0.5 1 0.2 0.5 0.2 1.2v0.4h-4.6v0.3q0 0.4 0.2 0.8 0.1 0.3 0.3 0.6 0.3 0.2 0.6 0.4 0.4 0.1 0.8 0.1 0.6 0 1.1-0.3 0.5-0.3 0.7-0.8l0.7 0.5q-0.3 0.6-0.9 1.1-0.7 0.3-1.6 0.3zm0-5.6q-0.4 0-0.8 0.1-0.3 0.1-0.6 0.4-0.2 0.3-0.3 0.6-0.2 0.3-0.2 0.7v0.1h3.6v-0.1q0-0.4-0.1-0.7-0.2-0.4-0.4-0.6-0.2-0.3-0.5-0.4-0.3-0.1-0.7-0.1zm5.4 5.5h-1.2l2.4-3.1-2.3-3.1h1.2l0.9 1.3 0.7 1.1h0.1l0.7-1.1 0.9-1.3h1.1l-2.2 3.1 2.3 3.1h-1.2l-1-1.4-0.7-1h-0.1l-0.6 1zm11.6 0h-2.4q-0.7 0-1-0.4-0.3-0.4-0.3-1.1v-3.9h-2.1v-0.8h1.5q0.3 0 0.5-0.2 0.1-0.1 0.1-0.4v-1.6h0.9v2.2h2.8v0.8h-2.8v4.5h2.8zm6.3-3.1h-3.5v-1h3.5zm8.3 2.3v0.8h-5.6v-1l2.8-2.5q0.6-0.6 1-1.1 0.4-0.6 0.4-1.3v-0.1q0-0.8-0.4-1.2-0.4-0.4-1.2-0.4-0.8 0-1.2 0.4-0.4 0.4-0.6 1l-0.9-0.3q0.1-0.4 0.3-0.7 0.2-0.4 0.6-0.7 0.3-0.3 0.8-0.4 0.4-0.2 1-0.2 0.7 0 1.1 0.2 0.5 0.2 0.9 0.5 0.3 0.3 0.5 0.8 0.1 0.4 0.1 0.9 0 0.5-0.1 0.9-0.1 0.5-0.4 0.8-0.2 0.4-0.6 0.8-0.3 0.4-0.7 0.7l-2.4 2.1zm2.6 0.8h-1.1l2.3-3.1-2.2-3.1h1.1l1 1.4 0.7 1h0.1l0.7-1 0.9-1.4h1.1l-2.3 3.1 2.4 3.1h-1.2l-1-1.4-0.7-1h-0.1l-0.7 1zm6.3 0v-0.8h2.2v-7.3h-2.2v-0.8h3.2v8.1h2.1v0.8z"/>
	<path id="stick1" fill-rule="evenodd" class="s3" d="m88 73v9h-65v-9z"/>
	<path id="stick2" fill-rule="evenodd" class="s4" d="m97 92v11h-82v-11z"/>
	<path id="stick3" fill-rule="evenodd" class="s4" d="m92 113v11h-73v-11z"/>
	<path id="stick4" fill-rule="evenodd" class="s5" d="m84 83v8h-57v-8z"/>
	<path id="stick5" fill-rule="evenodd" class="s5" d="m91 104v8h-72v-8z"/>
	<path id="stick6" fill-rule="evenodd" class="s5" d="m84 125v9h-58v-9z"/>
	<path id="bundle_wrapper" fill-rule="evenodd" class="s6" d="m46.06 71.86c0 0-5.22 12.02 1.86 37.13 7.08 25.1 9.27 25.24 9.1 24.74l6.94 0.15c0.32 1.6-6.97-9.66-11.83-34.16-4.86-24.5-0.21-27.77-0.21-27.77z"/>
	<path id="bundle_fiber" fill-rule="evenodd" class="s7" d="m57.94 133.58c0 0-7.87-19.48-10.62-35.73-2.3-13.61 0.03-25.19-0.17-25.71"/>
	<path id="bundle_fiber2" fill-rule="evenodd" class="s7" d="m59.94 133.58c0 0-7.87-19.48-10.62-35.73-2.3-13.61 0.03-25.19-0.17-25.71"/>
	<path id="UBun" class="s8" aria-label="UBun"  d="m117 105.9v-11.4h2.1v11.6q0 1.8-0.8 3.2-0.9 1.4-2.4 2.2-1.5 0.8-3.6 0.8-2 0-3.5-0.8-1.6-0.8-2.4-2.2-0.9-1.4-0.9-3.2v-11.6h2.2v11.4q0 1.3 0.5 2.3 0.6 1 1.6 1.6 1.1 0.5 2.5 0.5 1.5 0 2.5-0.5 1.1-0.6 1.6-1.6 0.6-1 0.6-2.3zm10.9 6.1h-6.4v-17.5h6.2q1.8 0 3 0.7 1.1 0.6 1.7 1.6 0.6 1.1 0.6 2.4 0 1.1-0.4 1.8-0.4 0.8-1 1.2-0.7 0.4-1.4 0.6v0.2q0.8 0 1.6 0.6 0.8 0.5 1.3 1.4 0.6 1 0.6 2.4 0 1.3-0.6 2.3-0.6 1.1-1.9 1.7-1.3 0.6-3.3 0.6zm-4.2-7.9v6h4.2q2 0 2.9-0.8 0.9-0.8 0.9-1.9 0-0.9-0.5-1.7-0.4-0.7-1.3-1.2-0.8-0.4-1.9-0.4zm0-7.7v5.8h3.9q1 0 1.7-0.3 0.8-0.4 1.2-1.1 0.5-0.7 0.5-1.6 0-1.2-0.8-2-0.8-0.8-2.5-0.8zm20.9 10.3v-7.8h2v13.1h-2v-2.2h-0.2q-0.4 1-1.4 1.7-1 0.7-2.5 0.7-1.2 0-2.2-0.6-0.9-0.5-1.5-1.6-0.5-1.1-0.5-2.8v-8.3h2v8.2q0 1.4 0.8 2.3 0.8 0.8 2.1 0.8 0.7 0 1.5-0.4 0.8-0.3 1.3-1.1 0.6-0.8 0.6-2zm6.7-2.6v7.9h-2v-13.1h1.9v2.1h0.2q0.5-1 1.4-1.7 1-0.6 2.4-0.6 1.4 0 2.4 0.6 1 0.5 1.5 1.6 0.6 1.1 0.6 2.8v8.3h-2v-8.2q0-1.5-0.8-2.4-0.8-0.9-2.2-0.9-1 0-1.8 0.5-0.7 0.4-1.2 1.2-0.4 0.8-0.4 1.9z"/>
</svg>